<svg xmlns="http://www.w3.org/2000/svg" width="32" height="32" viewBox="0 0 32 32" fill="none">
  <rect width="32" height="32" rx="8" fill="#0d9488"/>
  <path d="M9 11.5a1.5 1.5 0 011.5-1.5h2.46a.75.75 0 01.711.513l1.124 3.37a.75.75 0 01-.376.907l-1.693.847a8.281 8.281 0 004.137 4.137l.847-1.693a.75.75 0 01.908-.376l3.37 1.124a.75.75 0 01.512.711V22a1.5 1.5 0 01-1.5 1.5h-.75C13.037 23.5 9 19.463 9 12.25V11.5z" stroke="white" stroke-width="1.5" stroke-linecap="round" stroke-linejoin="round" fill="none"/>
</svg>
